<svg xmlns="http://www.w3.org/2000/svg" viewBox="0 0 845.13 393.37"><defs><style>.cls-1{fill:#1f2121;}.cls-2{fill:#211915;}</style></defs><title>ZONA LOGO</title><g id="Capa_2" data-name="Capa 2"><g id="Capa_1-2" data-name="Capa 1"><path class="cls-1" d="M320.19,295,160.1,393.37,0,295V98.34L160.1,0,320.19,98.34Zm-18-11.38V109.18l-68.92,42.31,0-20.58,52.17-32L170.2,28.14q0,28.95,0,57.89h50.35V152.8l-7,10.63v59.19l-43.38,54v88.1l115.26-70.74-74.07-45.48,11.08-13.76ZM34.73,293.93,150,364.68l0-88.09-44.8-54V170.81q5.16-6,10.31-12H98.92L18,109.18V283.65l78.86-48.41q5.72,6.78,11.44,13.57ZM168.45,131.75l-41.57,49.12v23.36h65V180.87l-33.31.16,40.83-49.28-.06-22.68H120v22.68ZM150,28.13,34.73,98.91l64.19,39.4V86H150Zm34.52,199.43H134.77l25,28.17Z"/><path class="cls-2" d="M482.15,96.84l-53,77.71h54.82v21.74H400.19V176l53.05-77.72H401.79V76.59h80.36Z"/><path class="cls-2" d="M522.29,192.05a39.66,39.66,0,0,1-16.54-15.48,45.05,45.05,0,0,1-5.86-23.17V119.48a45,45,0,0,1,5.86-23.17,39.66,39.66,0,0,1,16.54-15.48Q533,75.36,547,75.36t24.7,5.47a39.6,39.6,0,0,1,16.54,15.48,44.93,44.93,0,0,1,5.86,23.17V153.4a45,45,0,0,1-5.86,23.17,39.6,39.6,0,0,1-16.54,15.48Q561,197.52,547,197.52T522.29,192.05Zm36.24-19.68A18.4,18.4,0,0,0,566.2,165a22,22,0,0,0,2.71-11V118.9a21.94,21.94,0,0,0-2.71-11,18.34,18.34,0,0,0-7.67-7.36,26.87,26.87,0,0,0-23.06,0,18.36,18.36,0,0,0-7.68,7.36,22,22,0,0,0-2.7,11V154a22.08,22.08,0,0,0,2.7,11,18.42,18.42,0,0,0,7.68,7.36,26.87,26.87,0,0,0,23.06,0Z"/><path class="cls-2" d="M618.05,76.59h29.72l48,91.71-2.13,2.14V76.59h23.24V196.21H687L639.16,105.9l2.13-2.14v92.45H618.05Z"/><path class="cls-2" d="M780.38,76.59h15.43l49.32,119.7H819L788.1,114.54l-30.87,81.75H731.06Zm-25.64,78.78H822.6v21.74H754.74Z"/><path class="cls-2" d="M448.93,377l-11.45-5.15a43,43,0,0,1-18.25-15q-6.78-9.85-7.45-23.46h31.48a19.22,19.22,0,0,0,2.95,8.2,15,15,0,0,0,5.84,5.14,18.26,18.26,0,0,0,8.23,1.77q8.69,0,13.41-4.66t4.72-13.13V327q0-8.89-3.83-13.72t-11-4.82H449.94V280.2h13.68a10.51,10.51,0,0,0,8.95-4.24q3.18-4.23,3.17-11.84v-2.67q0-7.18-3.5-11.09t-9.85-3.91a14.35,14.35,0,0,0-7.5,2,16.79,16.79,0,0,0-5.73,5.89,27.38,27.38,0,0,0-3.34,9.33H414.45q1.33-14.25,7.95-24.59a43.65,43.65,0,0,1,17.3-15.75,51.9,51.9,0,0,1,23.81-5.42q21.47,0,33.2,10.56t11.74,29.95v4.71A31.83,31.83,0,0,1,502.77,282a33.84,33.84,0,0,1-16.12,12,28.58,28.58,0,0,1,18.07,11.78q6.4,9.22,6.4,23.47V334q0,13.61-5.56,23.25a35.87,35.87,0,0,1-16.25,14.68q-10.67,5-25.69,5Z"/><path class="cls-2" d="M542.26,219.55h30.48V375.34H542.26Zm15.36,127.5h38.82q15,0,23.25-7t8.23-19.72V274.52q0-12.75-8.23-19.72t-23.25-7H557.62V219.55h38.15q20.25,0,34.54,6.54a47.49,47.49,0,0,1,21.75,19.07q7.46,12.54,7.45,30.21v44.15q0,16.82-7.17,29.36t-21.53,19.49q-14.34,7-35.15,7h-38Z"/></g></g></svg>